Coordinates
version=1
nRows=19
nColumns=36
inDegrees=yes

Units are S.I. units (second, meters, Newtons, ...)
If the header above contains a line with 'inDegrees', this indicates whether rotational values are in degrees (yes) or radians (no).

endheader
time	pelvis_tilt	pelvis_list	pelvis_rotation	pelvis_tx	pelvis_ty	pelvis_tz	hip_flexion_r	hip_adduction_r	hip_rotation_r	knee_angle_r	knee_angle_r_beta	ankle_angle_r	subtalar_angle_r	mtp_angle_r	hip_flexion_l	hip_adduction_l	hip_rotation_l	knee_angle_l	knee_angle_l_beta	ankle_angle_l	subtalar_angle_l	mtp_angle_l	lumbar_extension	lumbar_bending	lumbar_rotation	arm_flex_r	arm_add_r	arm_rot_r	elbow_flex_r	pro_sup_r	arm_flex_l	arm_add_l	arm_rot_l	elbow_flex_l	pro_sup_l
      0.00000000	     -3.51218435	     -2.24434183	     -1.90359127	     -5.12178919	      1.20048807	      0.21758998	      6.19719479	      4.16037365	     -3.45566784	      9.04987196	      0.15795006	      4.67784840	     -9.93718905	     -7.81014965	      5.09206327	     -1.35031884	      0.66526055	      8.88580383	      0.15508653	      4.19125102	    -14.53809515	     -7.81014965	     -7.17237857	      3.20511383	     -1.99726073	      2.94131017	     -8.66397783	      1.97723041	     34.15666256	     83.98313058	     -1.34344637	     -7.47624687	     -0.86643431	     37.56399783	     78.99557776
      0.00833330	     -4.96054570	     -1.32483527	     -1.86241509	     -5.11991756	      1.19877991	      0.21718745	      7.59825078	      3.44312447	     -3.23292400	      8.83275042	      0.15416058	      6.80455003	     -6.47306990	     -7.77697434	      6.85479767	     -0.00582263	     -0.85803821	      8.81888768	      0.15391863	      4.19139540	    -12.45030215	     -7.77697434	     -4.43421873	      2.24834723	     -1.62487589	      1.63211889	     -8.22394652	     -0.18003676	     34.35619994	     82.35188988	     -1.07563085	     -6.82904121	     -4.02907921	     36.35674348	     77.49475653
      0.01666670	     -5.20598767	     -0.50407589	     -2.05428438	     -5.11947486	      1.19857228	      0.21805080	      7.31196087	      2.66340757	     -4.04436529	      7.64752114	      0.13347442	      7.21513465	     -4.89626492	     -7.74490064	      7.00622799	      0.80339873	     -2.33182447	      8.74386384	      0.15260921	      4.31467331	    -11.32967151	     -7.74490064	     -3.85177313	      1.03793592	     -1.43285837	      1.09126049	     -7.88021371	     -1.10557355	     35.13790114	     80.96041314	     -1.03401497	     -7.47841358	     -3.97318252	     36.27996431	     76.65088606
      0.02500000	     -4.76903595	     -0.09710334	     -2.16172615	     -5.11938660	      1.20051597	      0.21854938	      6.62329111	      2.24685679	     -4.28237500	      7.09434209	      0.12381963	      7.70614813	     -3.60281817	     -7.69647663	      6.10445899	      1.29945364	     -2.93135553	      8.07073225	      0.14086085	      4.07127219	    -10.94880611	     -7.69647663	     -4.34363869	      0.36169484	     -1.01340375	      0.65445615	     -7.70966475	     -1.37127681	     35.66603381	     79.04040140	     -0.82132537	     -8.08446934	     -2.75361431	     36.24616476	     75.57712130
      0.03333330	     -4.45445981	      0.06753617	     -2.18849919	     -5.11915805	      1.20141853	      0.21887823	      6.02805916	      2.13445168	     -4.39061781	      6.58557598	      0.11493998	      7.88428543	     -2.97278329	     -7.62834421	      5.49963011	      1.53225024	     -3.16715393	      7.54388744	      0.13166567	      3.83133094	    -10.77747215	     -7.62834421	     -4.78279235	      0.11677467	     -0.00795688	     -0.35377222	     -7.53510026	     -3.38991735	     36.77211560	     83.16871834	      0.17846612	     -8.54896592	     -0.34620537	     35.28726086	     81.62954600
      0.04166670	     -4.00879940	      0.12820051	     -2.19310449	     -5.11879454	      1.20324441	      0.21916174	      5.34019761	      2.09731286	     -4.43299142	      6.23234592	      0.10877496	      7.87808018	     -2.58739920	     -7.60925055	      4.85898189	      1.61541548	     -3.35208489	      7.15172360	      0.12482112	      3.65043562	    -10.46707734	     -7.60925055	     -5.36844389	     -0.03195604	      0.06506426	     -0.41525923	     -7.53773761	     -2.92087780	     36.84936557	     81.55076134	      0.37617001	     -8.58619987	     -0.21119939	     35.51040679	     80.12544529
      0.05000000	     -3.56762265	      0.16053830	     -2.17511422	     -5.11839169	      1.20396455	      0.21934507	      4.67284229	      2.06344387	     -4.36604077	      5.94593733	      0.10377618	      7.79931984	     -2.48955072	     -7.59722293	      4.26787559	      1.65910276	     -3.44266467	      6.85145649	      0.11958047	      3.54256500	    -10.19858883	     -7.59722293	     -5.96448800	     -0.13961870	      0.20100209	     -0.46718772	     -7.58324719	     -2.40387586	     36.79194377	     80.33375261	      0.71110897	     -8.57962568	      0.08212801	     35.54248500	     79.06152036
      0.05833330	     -3.35437576	      0.20165865	     -2.13099609	     -5.11803530	      1.20459865	      0.21943242	      4.29805935	      2.02133656	     -4.30214792	      5.75898859	      0.10051331	      7.57022354	     -2.61064176	     -7.55875516	      3.97435774	      1.71117332	     -3.25510989	      6.65515931	      0.11615444	      3.03848518	    -10.53411865	     -7.55875516	     -6.21536732	     -0.21657728	      0.30581504	     -0.58521691	     -7.57457376	     -2.55641911	     36.62297326	     83.96085207	      0.99068487	     -8.49513185	     -0.39722788	     35.26866411	     83.95635788
      0.06666670	     -3.07865564	      0.21193709	     -2.08185168	     -5.11797336	      1.20526643	      0.21945079	      3.86088937	      2.00575497	     -4.30833070	      5.55306020	      0.09691918	      7.31698705	     -2.68001268	     -7.54764940	      3.61576641	      1.71632575	     -3.19802879	      6.50960944	      0.11361412	      2.69051990	    -10.57142037	     -7.54764940	     -6.55332471	     -0.26128745	      0.35020527	     -0.57578622	     -7.64134577	     -1.87543196	     36.40531944	     82.49254746	      1.19968119	     -8.50060207	      0.01455724	     35.17192568	     82.50108977
      0.07500000	     -2.78475810	      0.24067365	     -2.05398738	     -5.11847369	      1.20518448	      0.21948767	      3.43606254	      1.97842289	     -4.24738451	      5.35774789	      0.09351034	      7.02344457	     -2.87136161	     -7.54494534	      3.24513555	      1.73899859	     -3.11943427	      6.39215748	      0.11156419	      2.36201345	    -10.62995487	     -7.54494534	     -6.97789534	     -0.31646812	      0.42501316	     -0.60569675	     -7.61772768	     -1.81682852	     36.46743611	     81.73942190	      1.31516974	     -8.45890969	     -0.06478575	     35.32650631	     81.73747751
      0.08333330	     -2.70415348	      0.28865381	     -2.03250051	     -5.11940474	      1.20551571	      0.21943441	      3.31380866	      1.93117828	     -4.23220613	      5.22811989	      0.09124791	      6.78466064	     -3.04706829	     -7.53482857	      3.15541393	      1.78195786	     -2.96954230	      6.35524257	      0.11091991	      1.96095825	    -10.93245348	     -7.53482857	     -7.04965379	     -0.37059755	      0.47629894	     -0.48948082	     -7.76717291	     -0.93784395	     36.17412162	     81.16143304	      1.52543050	     -8.49533841	      0.49757410	     34.94207267	     81.19506316
      0.09166670	     -2.47575478	      0.31846264	     -2.01077936	     -5.12076124	      1.20543003	      0.21939374	      3.03296581	      1.90548347	     -4.25172298	      5.03611952	      0.08789687	      6.49649837	     -3.15066428	     -7.53190063	      2.90644177	      1.79632315	     -3.02266940	      6.29517142	      0.10987147	      1.70619227	    -10.84153845	     -7.53190063	     -7.45627254	     -0.42064083	      0.52353379	     -0.49090371	     -7.72153427	     -1.02958133	     36.42102555	     80.13062275	      1.57269073	     -8.48209535	      0.29332494	     35.27867390	     80.16164159
      0.10000000	     -2.56654980	      0.37368494	     -1.99711630	     -5.12223684	      1.20506467	      0.21925003	      3.19414499	      1.85858603	     -4.30014143	      4.94082023	      0.08623358	      6.28722308	     -3.26715199	     -7.52632895	      3.09595597	      1.85050208	     -2.81446970	      6.36554734	      0.11109976	      1.36152593	    -11.23024897	     -7.52632895	     -7.35321941	     -0.46878657	      0.58313899	     -0.21889658	     -7.83032309	     -0.36238061	     36.03500185	     80.86579585	      1.85140645	     -8.52310365	      0.67965071	     34.67991685	     80.98007987
      0.10833330	     -2.36266940	      0.42386633	     -2.01563451	     -5.12354357	      1.20515510	      0.21919368	      3.00026401	      1.81641474	     -4.26971161	      4.73846764	      0.08270186	      6.02864814	     -3.46100915	     -7.52372473	      2.94117449	      1.90091530	     -2.81790161	      6.37452886	      0.11125652	      1.17844906	    -11.27148589	     -7.52372473	     -7.80515012	     -0.54112115	      0.67926339	     -0.10559569	     -7.81111766	     -0.50288042	     36.43363947	     79.90322452	      1.90757418	     -8.50741672	      0.45501444	     35.18288441	     80.02757147
      0.11666670	     -2.43167001	      0.46090903	     -2.01132558	     -5.12436579	      1.20474188	      0.21904478	      3.13538566	      1.78783658	     -4.33018721	      4.59662693	      0.08022627	      5.75899856	     -3.59294138	     -7.51606010	      3.12052759	      1.93681780	     -2.78025005	      6.44942513	      0.11256370	      0.98943017	    -11.39957567	     -7.51606010	     -7.84411610	     -0.56582104	      0.74502776	     -0.02301579	     -7.73735473	     -1.41694552	     36.53029951	     85.62950298	      1.98037890	     -8.35044363	     -0.77630748	     35.20688518	     86.13050440
      0.12500000	     -2.43657054	      0.50657944	     -1.95168936	     -5.12483933	      1.20511573	      0.21878072	      3.17171749	      1.73240729	     -4.58967257	      4.43134535	      0.07734157	      5.60139302	     -3.44679765	     -7.50911282	      3.20083613	      2.00423228	     -2.58327421	      6.44671369	      0.11251638	      0.69736527	    -11.70618670	     -7.50911282	     -7.94051343	     -0.61099671	      0.79363612	      0.07373545	     -7.78022689	     -1.16325804	     36.65626591	     84.24180272	      2.11667066	     -8.37354282	     -0.51745839	     35.22193733	     84.86256481
      0.13333330	     -2.48031312	      0.53106746	     -2.01264489	     -5.12506629	      1.20525121	      0.21869716	      3.23764479	      1.72556288	     -4.40051419	      4.26172520	      0.07438114	      5.23380860	     -3.87455862	     -7.50769847	      3.31629961	      2.02830493	     -2.66904684	      6.48898224	      0.11325411	      0.62719805	    -11.66079576	     -7.50769847	     -7.96658138	     -0.62824515	      0.91320677	      0.21307900	     -7.90561124	     -0.68069733	     36.63564941	     83.85596472	      2.22804178	     -8.38971768	     -0.26660274	     35.17467502	     84.48453928
      0.14166670	     -2.42577401	      0.55537070	     -2.00052113	     -5.12520220	      1.20574091	      0.21846807	      3.16226211	      1.69173624	     -4.51973027	      4.07344074	      0.07109495	      5.10111989	     -3.77363107	     -7.50521456	      3.27673407	      2.08600036	     -2.47449149	      6.43832644	      0.11236999	      0.36869599	    -11.93009387	     -7.50521456	     -8.12494155	     -0.65730938	      0.97687857	      0.30679806	     -8.10458748	      0.29149123	     36.78047348	     80.80017797	      2.32839964	     -8.54276680	      0.67530702	     35.28246718	     81.53757197
      0.15000000	     -2.31417604	      0.54788841	     -2.01078989	     -5.12527235	      1.20561445	      0.21831054	      3.01476213	      1.68907118	     -4.67903503	      3.91962617	      0.06841038	      4.94363600	     -3.59460612	     -7.50436411	      3.16090242	      2.09367143	     -2.58989870	      6.39000172	      0.11152657	      0.36724971	    -11.69218353	     -7.50436411	     -8.37330519	     -0.63117741	      1.02961985	      0.34533738	     -8.05356651	      0.01486496	     37.08082621	     78.98432426	      2.27616673	     -8.43289604	      0.38113794	     35.68978226	     79.71526046
